<svg xmlns="http://www.w3.org/2000/svg" viewBox="0 0 32 32">
  <symbol id="polyxd-idle" viewBox="0 0 32 32"><path fill-rule="evenodd" d="M13 6h6a7 7 0 0 1 7 7v6a7 7 0 0 1-7 7h-6a7 7 0 0 1-7-7v-6a7 7 0 0 1 7-7zM13.6 16a2.4 2.4 0 1 0 4.8 0a2.4 2.4 0 1 0 -4.8 0z" fill="#141413"/><rect x="6" y="14" width="5" height="14" rx="2.5" fill="#141413"/><path fill-rule="evenodd" d="M16 11.2C19.504 11.2 20.8 12.496 20.8 16S19.504 20.8 16 20.8 11.2 19.504 11.2 16 12.496 11.2 16 11.2zM13.6 16a2.4 2.4 0 1 0 4.8 0a2.4 2.4 0 1 0 -4.8 0z" fill="#ff5a1f"/></symbol>
  <symbol id="polyxd-reading" viewBox="0 0 32 32"><path fill-rule="evenodd" d="M13 6h6a7 7 0 0 1 7 7v6a7 7 0 0 1-7 7h-6a7 7 0 0 1-7-7v-6a7 7 0 0 1 7-7zM14.9 14.9a2.4 2.4 0 1 0 4.8 0a2.4 2.4 0 1 0 -4.8 0z" fill="#141413"/><rect x="6" y="14" width="5" height="14" rx="2.5" fill="#141413"/><path fill-rule="evenodd" d="M16 11.2C19.504 11.2 20.8 12.496 20.8 16S19.504 20.8 16 20.8 11.2 19.504 11.2 16 12.496 11.2 16 11.2zM14.9 14.9a2.4 2.4 0 1 0 4.8 0a2.4 2.4 0 1 0 -4.8 0z" fill="#ff5a1f"/></symbol>
  <symbol id="polyxd-looking" viewBox="0 0 32 32"><path fill-rule="evenodd" d="M13 6h6a7 7 0 0 1 7 7v6a7 7 0 0 1-7 7h-6a7 7 0 0 1-7-7v-6a7 7 0 0 1 7-7zM12.299999999999999 17.1a2.4 2.4 0 1 0 4.8 0a2.4 2.4 0 1 0 -4.8 0z" fill="#141413"/><rect x="6" y="14" width="5" height="14" rx="2.5" fill="#141413"/><path fill-rule="evenodd" d="M16 11.2C19.504 11.2 20.8 12.496 20.8 16S19.504 20.8 16 20.8 11.2 19.504 11.2 16 12.496 11.2 16 11.2zM12.299999999999999 17.1a2.4 2.4 0 1 0 4.8 0a2.4 2.4 0 1 0 -4.8 0z" fill="#ff5a1f"/></symbol>
  <symbol id="polyxd-blink" viewBox="0 0 32 32"><path fill-rule="evenodd" d="M13 6h6a7 7 0 0 1 7 7v6a7 7 0 0 1-7 7h-6a7 7 0 0 1-7-7v-6a7 7 0 0 1 7-7z" fill="#141413"/><rect x="6" y="14" width="5" height="14" rx="2.5" fill="#141413"/><path fill-rule="evenodd" d="M16 11.2C19.504 11.2 20.8 12.496 20.8 16S19.504 20.8 16 20.8 11.2 19.504 11.2 16 12.496 11.2 16 11.2z" fill="#ff5a1f"/><rect x="13.4" y="15.2" width="5.2" height="1.6" rx="0.8" fill="#141413"/></symbol>
  <symbol id="polyxd-attention" viewBox="0 0 32 32"><path fill-rule="evenodd" d="M13 6h6a7 7 0 0 1 7 7v6a7 7 0 0 1-7 7h-6a7 7 0 0 1-7-7v-6a7 7 0 0 1 7-7zM13 16a3 3 0 1 0 6 0a3 3 0 1 0 -6 0z" fill="#141413"/><rect x="6" y="14" width="5" height="14" rx="2.5" fill="#141413"/><path fill-rule="evenodd" d="M16 11.2C19.504 11.2 20.8 12.496 20.8 16S19.504 20.8 16 20.8 11.2 19.504 11.2 16 12.496 11.2 16 11.2zM13 16a3 3 0 1 0 6 0a3 3 0 1 0 -6 0z" fill="#ff5a1f"/></symbol>
  <symbol id="polyxd-checked" viewBox="0 0 32 32"><path fill-rule="evenodd" d="M13 6h6a7 7 0 0 1 7 7v6a7 7 0 0 1-7 7h-6a7 7 0 0 1-7-7v-6a7 7 0 0 1 7-7z" fill="#141413"/><rect x="6" y="14" width="5" height="14" rx="2.5" fill="#141413"/><path fill-rule="evenodd" d="M16 11.2C19.504 11.2 20.8 12.496 20.8 16S19.504 20.8 16 20.8 11.2 19.504 11.2 16 12.496 11.2 16 11.2z" fill="#ff5a1f"/><path d="M13.9 16.3l1.5 1.5 2.8-3.1" stroke="#141413" stroke-width="1.3" fill="none" stroke-linecap="round" stroke-linejoin="round"/></symbol>
  <symbol id="polyxd-asleep" viewBox="0 0 32 32"><path fill-rule="evenodd" d="M13 6h6a7 7 0 0 1 7 7v6a7 7 0 0 1-7 7h-6a7 7 0 0 1-7-7v-6a7 7 0 0 1 7-7z" fill="#141413"/><rect x="6" y="14" width="5" height="14" rx="2.5" fill="#141413"/><path fill-rule="evenodd" d="M16 11.2C19.504 11.2 20.8 12.496 20.8 16S19.504 20.8 16 20.8 11.2 19.504 11.2 16 12.496 11.2 16 11.2z" fill="#14141340"/></symbol>
</svg>
