<svg xmlns="http://www.w3.org/2000/svg" viewBox="0 0 32 32"><path fill-rule="evenodd" d="M13 6h6a7 7 0 0 1 7 7v6a7 7 0 0 1-7 7h-6a7 7 0 0 1-7-7v-6a7 7 0 0 1 7-7zM13.6 16a2.4 2.4 0 1 0 4.8 0a2.4 2.4 0 1 0 -4.8 0z" fill="#f4f1ea"/><rect x="6" y="14" width="5" height="14" rx="2.5" fill="#f4f1ea"/><path fill-rule="evenodd" d="M16 11.2C19.504 11.2 20.8 12.496 20.8 16S19.504 20.8 16 20.8 11.2 19.504 11.2 16 12.496 11.2 16 11.2zM13.6 16a2.4 2.4 0 1 0 4.8 0a2.4 2.4 0 1 0 -4.8 0z" fill="#ff5a1f"/></svg>
